<svg viewBox="0 0 198.28 198.27" xmlns="http://www.w3.org/2000/svg">
  <defs>
    <style>.cls-1 {
      fill: #546e7a;
    }

    .cls-2 {
      fill: #5ec6d3;
    }

    .cls-3 {
      fill: #f26d64;
    }

    .cls-4 {
      fill: #fff;
    }</style>
  </defs>
  <title>Ресурс 2</title>
  <g data-name="Слой 2" id="Слой_2">
    <g id="objects">
      <path class="cls-1"
            d="M59.05,115.57A43.32,43.32,0,0,1,98.38,55.82l15.25-28.1L98.42,0A99.15,99.15,0,0,0,10.15,142.85l16-26.41Z"/>
      <path class="cls-2"
            d="M104.48,56.14A43.3,43.3,0,0,1,136.55,121L153,147.8l32.12.7A99.17,99.17,0,0,0,104.79.15L119.9,27.71Z"/>
      <path class="cls-3"
            d="M133.15,126a43.31,43.31,0,0,1-71.41-5l-32.42.87L13.15,148.51a99.16,99.16,0,0,0,168.6,5.43l-31.87-.7Z"/>
      <path class="cls-4"
            d="M149.37,68.25A15.14,15.14,0,0,0,162.73,46a2.31,2.31,0,0,1-.37,0h-.22l-1.93-.15-1.38,1.39A11.12,11.12,0,1,1,149.37,42a11,11,0,0,1,5.85,1.67l1.26-1.26-.17-2.2a2.34,2.34,0,0,1,0-.53,15.13,15.13,0,1,0-6.95,28.57Z"/>
      <path class="cls-4"
            d="M149.37,49.21h.3l2.79-2.79.06-.06a7.45,7.45,0,1,0,3.6,3.6l-.06.06-2.8,2.8a2.64,2.64,0,0,1,0,.29,3.91,3.91,0,1,1-3.91-3.91Z"/>
      <path class="cls-4"
            d="M165,39.4l.82-.82a1,1,0,0,0,0-1.35l-.57-.57a.94.94,0,0,0-1.34,0l-.94.94-.19-2.5a.33.33,0,0,0-.33-.3.28.28,0,0,0-.22.1l-3.69,3.69a1.63,1.63,0,0,0-.47,1.26V40l.18,2.31-1.33,1.34L154.52,46l-.05.05-2.32,2.33-1,1a.79.79,0,0,0-.24.5l-.06.81a.8.8,0,0,0,.8.87h0l.86,0a.77.77,0,0,0,.53-.24l7.25-7.25,2.1.17h.22a1.65,1.65,0,0,0,1.14-.47l3.69-3.69a.32.32,0,0,0-.21-.55Z"/>
      <path class="cls-4"
            d="M137.63,182.38c0,.79-.21,1.43-1.19,1.43H101.49A1.78,1.78,0,0,1,99.71,182V149.09c0-1,.64-1.19,1.42-1.19s1.43.21,1.43,1.19v30.09a1.78,1.78,0,0,0,1.78,1.78h32.1c1,0,1.19.64,1.19,1.42Z"/>
      <path class="cls-4"
            d="M134.29,160.11c.42.26.72.07.67-.41l-.69-7.6a.64.64,0,0,0-.91-.57l-7.14,2.67c-.45.17-.49.53-.08.78l1.33.84a.86.86,0,0,1,.26,1.21l-5.4,8.2a1.15,1.15,0,0,1-1.31.42l-8.39-3.17a1.31,1.31,0,0,0-1.4.37L106,169.22a2.91,2.91,0,0,0-.56,1.57l0,5.21c0,.49.25.58.57.22l6.79-7.91a1.35,1.35,0,0,1,1.4-.36l8.45,3.21a1.17,1.17,0,0,0,1.32-.43l7.57-11.35a.91.91,0,0,1,1.24-.27Z"/>
      <path class="cls-4"
            d="M45,83.75a7.68,7.68,0,0,0,.23-1l.15-1a.69.69,0,0,1,.76-.58l1.39.27,1.38.29a.74.74,0,0,1,.63.89l-.13.89a5.72,5.72,0,0,1-.2.87.75.75,0,0,1-.91.6l-1.38-.22-1.39-.26A.74.74,0,0,1,45,83.75Z"/>
      <path class="cls-4"
            d="M44.56,85.08l.26-.7c.12-.43.28-1,.4-1.59a12,12,0,0,0,.19-1.63c0-.44,0-.74,0-.74h1.68l0,.84a12.49,12.49,0,0,1-.22,1.84,18.12,18.12,0,0,1-.45,1.8c-.18.47-.29.79-.29.79Z"/>
      <path class="cls-4"
            d="M42.93,88a13.65,13.65,0,0,0,1-1.66.69.69,0,0,1,.93-.25l1.19.75,1.17.78a.76.76,0,0,1,.29,1.06s-.92,1.55-1,1.52a.78.78,0,0,1-1.08.22l-1.21-.72L43.12,89A.72.72,0,0,1,42.93,88Z"/>
      <path class="cls-4"
            d="M42,89.09l.5-.55a13.22,13.22,0,0,0,.94-1.34,12.12,12.12,0,0,0,1.08-2.12l1.57.61a13.57,13.57,0,0,1-1.22,2.41,15.42,15.42,0,0,1-1.07,1.51l-.56.63Z"/>
      <path class="cls-4"
            d="M39.46,91.26A13,13,0,0,0,41,90.07a.73.73,0,0,1,1,.11l.84,1.13.81,1.15a.77.77,0,0,1-.12,1.09l-.71.55-.73.53a.77.77,0,0,1-1.08-.2l-.88-1.1-.85-1.12A.71.71,0,0,1,39.46,91.26Z"/>
      <path class="cls-4"
            d="M38.23,91.94a12.21,12.21,0,0,0,2-1.25A12.48,12.48,0,0,0,42,89.09l1.24,1.15A14.75,14.75,0,0,1,39,93.45Z"/>
      <path class="cls-4"
            d="M35.05,93l1-.24a4.19,4.19,0,0,0,.65-.2l.29-.11a.74.74,0,0,1,.87.46s.18.68.37,1.35l.34,1.36a.76.76,0,0,1-.51,1s-1.73.48-1.73.48a.75.75,0,0,1-.94-.55l-.42-1.35c-.19-.68-.39-1.36-.39-1.36A.7.7,0,0,1,35.05,93Z"/>
      <path class="cls-4"
            d="M33.66,93.24s.3,0,.74-.1A11.14,11.14,0,0,0,36,92.8c.58-.14,1.13-.39,1.55-.53l.67-.33L39,93.45l-.76.37c-.48.16-1.1.44-1.75.6a11.89,11.89,0,0,1-1.82.38l-.84.12Z"/>
      <path class="cls-4"
            d="M30.29,93.1s.49.09,1,.14l1,.05a.7.7,0,0,1,.64.71l-.13,1.41c-.09.7-.17,1.4-.17,1.4a.74.74,0,0,1-.82.71l-.9,0c-.44,0-.88-.11-.88-.11a.74.74,0,0,1-.68-.84l.08-1.41.12-1.41A.74.74,0,0,1,30.29,93.1Z"/>
      <path class="cls-4"
            d="M28.92,92.8l.72.18c.44.1,1,.18,1.63.26a16.37,16.37,0,0,0,2.39,0l.15,1.68a17.28,17.28,0,0,1-2.69,0c-.67-.09-1.34-.18-1.84-.29l-.81-.21Z"/>
      <path class="cls-4"
            d="M25.83,91.47a15.21,15.21,0,0,0,1.76.88.7.7,0,0,1,.35.9l-.63,1.26-.66,1.25a.76.76,0,0,1-1,.38s-1.63-.75-1.6-.8a.75.75,0,0,1-.32-1L24.28,93c.31-.63.61-1.26.61-1.26A.74.74,0,0,1,25.83,91.47Z"/>
      <path class="cls-4"
            d="M24.66,90.69l.61.44a13.5,13.5,0,0,0,1.43.81,12.54,12.54,0,0,0,2.22.86l-.45,1.62a13.37,13.37,0,0,1-2.52-1,16,16,0,0,1-1.61-.91l-.69-.5Z"/>
      <path class="cls-4"
            d="M22.25,88.35a13.06,13.06,0,0,0,1.34,1.44.72.72,0,0,1,0,1l-1,1-1.06.92a.77.77,0,0,1-1.1,0s-.31-.32-.61-.65-.61-.67-.61-.67a.77.77,0,0,1,.09-1.1l1-1,1-1A.7.7,0,0,1,22.25,88.35Z"/>
      <path class="cls-4"
            d="M21.45,87.2a11.67,11.67,0,0,0,1.44,1.89,12.45,12.45,0,0,0,1.77,1.6l-1,1.35a14,14,0,0,1-2-1.8A14.24,14.24,0,0,1,20,88.1Z"/>
      <path class="cls-4"
            d="M20,84.15a2.33,2.33,0,0,0,.1.29l.23.64a4.1,4.1,0,0,0,.27.62l.13.28a.73.73,0,0,1-.37.91l-1.31.5-1.32.48a.77.77,0,0,1-1-.41c-.05,0-.66-1.68-.66-1.68a.75.75,0,0,1,.47-1l1.3-.55,1.31-.51A.68.68,0,0,1,20,84.15Z"/>
      <path class="cls-4"
            d="M19.71,82.79a5.15,5.15,0,0,0,.17.73l.19.74c.1.26.2.54.3.82.19.56.51,1.08.68,1.49l.4.63L20,88.1l-.44-.72a17.34,17.34,0,0,1-.78-1.69l-.34-.93c-.08-.3-.15-.59-.22-.84a5.57,5.57,0,0,1-.18-.82Z"/>
      <path class="cls-4"
            d="M19.54,79.43l-.06,1,.06,1a.73.73,0,0,1-.67.71H17.46l-1.42,0a.75.75,0,0,1-.77-.75l0-.9,0-.9a.74.74,0,0,1,.77-.75l1.42,0h1.41A.75.75,0,0,1,19.54,79.43Z"/>
      <path class="cls-4"
            d="M19.71,78.05a16.91,16.91,0,0,0-.23,2.37,16.91,16.91,0,0,0,.23,2.37l-1.65.31a13.94,13.94,0,0,1,0-5.36Z"/>
      <path class="cls-4"
            d="M20.77,74.86l-.13.28a4.1,4.1,0,0,0-.27.62c-.08.23-.17.46-.23.64a2.33,2.33,0,0,0-.1.29.68.68,0,0,1-.86.42l-1.31-.52L16.57,76a.75.75,0,0,1-.47-1s.61-1.69.66-1.67a.76.76,0,0,1,1-.41l1.32.48,1.31.5A.73.73,0,0,1,20.77,74.86Z"/>
      <path class="cls-4"
            d="M21.45,73.64l-.4.63c-.17.41-.49.93-.68,1.49l-.3.82-.19.74a5.15,5.15,0,0,0-.17.73l-1.65-.31a5.83,5.83,0,0,1,.18-.83c.07-.24.14-.53.22-.83l.34-.93a17.34,17.34,0,0,1,.78-1.69l.44-.72Z"/>
      <path class="cls-4"
            d="M23.59,71a14.12,14.12,0,0,0-1.34,1.45.7.7,0,0,1-1,.07l-1-1-1-1a.76.76,0,0,1-.09-1.09s.3-.34.61-.67.61-.65.61-.65a.77.77,0,0,1,1.1,0l1.06.92,1,.95A.71.71,0,0,1,23.59,71Z"/>
      <path class="cls-4"
            d="M24.66,70.15a12.75,12.75,0,0,0-1.77,1.59,12,12,0,0,0-1.44,1.9L20,72.74a14.24,14.24,0,0,1,1.63-2.14,14,14,0,0,1,2-1.8Z"/>
      <path class="cls-4"
            d="M27.59,68.49a15.21,15.21,0,0,0-1.76.88.74.74,0,0,1-.94-.29s-.3-.63-.61-1.26l-.58-1.28A.76.76,0,0,1,24,65.49s1.6-.79,1.6-.79a.76.76,0,0,1,1,.38l.66,1.25c.32.63.63,1.26.63,1.26A.7.7,0,0,1,27.59,68.49Z"/>
      <path class="cls-4"
            d="M28.92,68a11.69,11.69,0,0,0-2.22.86,13.6,13.6,0,0,0-1.43.8l-.61.45-1-1.35.69-.5A16,16,0,0,1,26,67.39a13.37,13.37,0,0,1,2.52-1Z"/>
      <path class="cls-4"
            d="M32.26,67.55l-1,0c-.49.05-1,.14-1,.14a.74.74,0,0,1-.77-.61l-.12-1.41-.08-1.4a.74.74,0,0,1,.68-.84s.44-.08.88-.11l.9,0a.74.74,0,0,1,.82.7s.08.71.17,1.41l.13,1.4A.7.7,0,0,1,32.26,67.55Z"/>
      <path class="cls-4"
            d="M33.66,67.6a14.88,14.88,0,0,0-2.39,0c-.59.08-1.19.15-1.63.26l-.72.18-.45-1.62.81-.21a17.47,17.47,0,0,1,1.84-.29,17.28,17.28,0,0,1,2.69,0Z"/>
      <path class="cls-4"
            d="M37,68.35l-.29-.11A4.19,4.19,0,0,0,36,68l-1-.24a.7.7,0,0,1-.51-.81s.2-.68.39-1.36l.42-1.35a.76.76,0,0,1,.94-.56s1.74.44,1.73.49a.76.76,0,0,1,.51,1l-.34,1.37c-.19.67-.37,1.35-.37,1.35A.75.75,0,0,1,37,68.35Z"/>
      <path class="cls-4"
            d="M38.23,68.9l-.67-.33c-.42-.14-1-.39-1.55-.53a11.14,11.14,0,0,0-1.61-.34c-.44-.07-.74-.1-.74-.1l.15-1.68s.34,0,.84.11a13.39,13.39,0,0,1,1.82.39c.65.16,1.27.44,1.75.6l.76.37Z"/>
      <path class="cls-4"
            d="M41,70.76a12.88,12.88,0,0,0-1.57-1.18.71.71,0,0,1-.18-1l.85-1.12L41,66.4a.78.78,0,0,1,1.08-.19l.73.53.71.55a.77.77,0,0,1,.12,1.09l-.81,1.15L42,70.66A.72.72,0,0,1,41,70.76Z"/>
      <path class="cls-4"
            d="M42,71.74a12.08,12.08,0,0,0-1.77-1.59,12.21,12.21,0,0,0-2-1.25L39,67.39a13.32,13.32,0,0,1,2.3,1.41,14,14,0,0,1,2,1.8Z"/>
      <path class="cls-4"
            d="M44,74.49a14.59,14.59,0,0,0-1-1.67.72.72,0,0,1,.19-1l1.19-.74,1.21-.71a.77.77,0,0,1,1.08.22s1,1.52,1,1.52a.76.76,0,0,1-.29,1.06L46.1,74l-1.19.75A.7.7,0,0,1,44,74.49Z"/>
      <path class="cls-4"
            d="M44.56,75.76a12.12,12.12,0,0,0-1.08-2.12,13.22,13.22,0,0,0-.94-1.34l-.5-.56,1.24-1.14.56.63a14.3,14.3,0,0,1,1.07,1.51,13.21,13.21,0,0,1,1.22,2.41Z"/>
      <path class="cls-4"
            d="M45.37,79l-.15-1a7.68,7.68,0,0,0-.23-1,.74.74,0,0,1,.53-.82L46.91,76l1.38-.22a.75.75,0,0,1,.91.59,5.67,5.67,0,0,1,.2.88l.13.89a.72.72,0,0,1-.63.88l-1.38.3-1.39.27A.69.69,0,0,1,45.37,79Z"/>
      <path class="cls-4"
            d="M45.45,80.42s0-.3,0-.75a12.09,12.09,0,0,0-.19-1.62c-.12-.59-.28-1.16-.4-1.59l-.26-.7,1.57-.61s.11.31.29.79a17.44,17.44,0,0,1,.45,1.8,12.49,12.49,0,0,1,.22,1.84l0,.84Z"/>
      <path class="cls-4"
            d="M32.46,91.36a10.94,10.94,0,1,1,11-10.94A11,11,0,0,1,32.46,91.36Zm0-21A10.07,10.07,0,1,0,42.61,80.42,10.12,10.12,0,0,0,32.46,70.35Z"/>
      <path class="cls-4"
            d="M71.8,45.07V27.13Q66.79,31,65.06,31a2,2,0,0,1-1.47-.66A2.12,2.12,0,0,1,63,28.79a1.74,1.74,0,0,1,.63-1.48,13.49,13.49,0,0,1,2.23-1.22,16.49,16.49,0,0,0,3.81-2.37,15.9,15.9,0,0,0,2.53-2.78q1.11-1.53,1.44-1.89a1.74,1.74,0,0,1,1.27-.36,2,2,0,0,1,1.67.81,3.54,3.54,0,0,1,.63,2.23V44.3q0,4-2.7,4a2.48,2.48,0,0,1-1.93-.81A3.44,3.44,0,0,1,71.8,45.07Z"/>
      <path class="cls-4"
            d="M164.15,120.73h10.47a3.79,3.79,0,0,1,2.38.65,2.06,2.06,0,0,1,.82,1.74,2.32,2.32,0,0,1-.64,1.66,2.62,2.62,0,0,1-2,.69H160.44a3.16,3.16,0,0,1-2.34-.84,2.62,2.62,0,0,1-.85-1.95,4.9,4.9,0,0,1,.55-1.92,6.77,6.77,0,0,1,1.18-1.87q2.67-2.77,4.81-4.74a31.42,31.42,0,0,1,3.07-2.6,17.9,17.9,0,0,0,2.74-2.33,9.39,9.39,0,0,0,1.66-2.41,5.74,5.74,0,0,0,.57-2.42,4.29,4.29,0,0,0-2.27-3.87,4.86,4.86,0,0,0-2.3-.56,4.68,4.68,0,0,0-4.13,2.31,9.23,9.23,0,0,0-.67,1.64A6.83,6.83,0,0,1,161.4,106a2.14,2.14,0,0,1-1.74.72A2.25,2.25,0,0,1,158,106a2.42,2.42,0,0,1-.67-1.81,7.43,7.43,0,0,1,.63-2.88,8.11,8.11,0,0,1,1.85-2.73,9.37,9.37,0,0,1,3.13-2,12,12,0,0,1,4.44-.75,12.86,12.86,0,0,1,5.23,1,7.88,7.88,0,0,1,2.47,1.77,8.19,8.19,0,0,1,2.24,5.65,8.45,8.45,0,0,1-1.23,4.52,13.86,13.86,0,0,1-2.52,3.19q-1.27,1.15-4.29,3.62a33,33,0,0,0-4.15,3.83A12.91,12.91,0,0,0,164.15,120.73Z"/>
      <path class="cls-4"
            d="M48.54,144a4.82,4.82,0,0,0,3.13-1.06,4,4,0,0,0,.27-5.68,3.74,3.74,0,0,0-2.83-1.1,5.1,5.1,0,0,0-2,.34,3.11,3.11,0,0,0-1.23.89,6.42,6.42,0,0,0-.86,1.42c-.27.58-.52,1.13-.74,1.64a1.42,1.42,0,0,1-.71.65,2.81,2.81,0,0,1-1.19.24,2.07,2.07,0,0,1-1.45-.64,2.28,2.28,0,0,1-.66-1.71,4.52,4.52,0,0,1,.62-2.16,8,8,0,0,1,1.82-2.17,9,9,0,0,1,3-1.64,11.81,11.81,0,0,1,4-.63,11,11,0,0,1,3.49.53,8.1,8.1,0,0,1,2.74,1.51,6.44,6.44,0,0,1,1.76,2.29,6.6,6.6,0,0,1,.59,2.8,6.42,6.42,0,0,1-.85,3.39,11.64,11.64,0,0,1-2.46,2.75,10.59,10.59,0,0,1,2.59,1.9,7.09,7.09,0,0,1,1.59,2.35,7.24,7.24,0,0,1,.54,2.8,8.7,8.7,0,0,1-.72,3.47,8.88,8.88,0,0,1-2.13,3,10.12,10.12,0,0,1-3.32,2.06,11.87,11.87,0,0,1-4.26.74,10.25,10.25,0,0,1-4.24-.85A10,10,0,0,1,41.9,159a9.79,9.79,0,0,1-1.84-2.64,5.81,5.81,0,0,1-.62-2.25,2.46,2.46,0,0,1,.74-1.85,2.61,2.61,0,0,1,1.85-.7,1.94,1.94,0,0,1,1.06.33,1.54,1.54,0,0,1,.67.78,13.51,13.51,0,0,0,2.2,4.08,4.22,4.22,0,0,0,3.31,1.33,5,5,0,0,0,4.24-2.39,5.12,5.12,0,0,0,.74-2.75A5,5,0,0,0,53,149.29,4.65,4.65,0,0,0,49.47,148c-.26,0-.67,0-1.22.08s-.91.08-1.07.08a2.38,2.38,0,0,1-1.68-.55,2,2,0,0,1-.59-1.51,1.9,1.9,0,0,1,.71-1.53,3.32,3.32,0,0,1,2.11-.58Z"/>
    </g>
  </g>
</svg>
